User Type,Username,Date,Text
[T],lyndavilla,2011-06-19T17:56Z,"Bug.2006.720p.HDDVD.x264-REVEiLLE.mkv
      Format : Matroska
      File size : 4.35 GiB
      Duration : 1h 41mn
      Overall bit rate : 6 123 Kbps
      Encoded date : UTC 2011-06-19 09:15:20
      Writing application : mkvmerge v4.1.1 ('Bouncin' Back') built on Jul  3 2010 22:54:08
      Writing library : libebml v1.0.0 + libmatroska v1.0.0
   Video #1
      ID : 1
      Format : AVC
      Format/Info : Advanced Video Codec
      Format profile : High@L5.1
      Format settings, CABAC : Yes
      Format settings, ReFrames : 8 frames
      Muxing mode : Container profile=Unknown@5.1
      Codec ID : V_MPEG4/ISO/AVC
      Duration : 1h 41mn
      Bit rate : 4 492 Kbps
      Nominal bit rate : 4 615 Kbps
      Width : 1 280 pixels
      Height : 720 pixels
      Display aspect ratio : 16:9
      Frame rate : 23.976 fps
      Resolution : 24 bits
      Colorimetry : 4:2:0
      Scan type : Progressive
      Bits/(Pixel*Frame) : 0.203
      Stream size : 3.19 GiB (73%)
      Writing library : x264 core 56 svn-680
      Encoding settings : cabac=1 / ref=5 / deblock=1:0:0 / analyse=0x3:0x113 / me=umh / subme=7 / brdo=1 / mixed_ref=1 / me_range=16 / chroma_me=1 / trellis=1 / 8x8dct=1 / cqm=0 / deadzone=21,11 / chroma_qp_offset=0 / threads=3 / nr=0 / decimate=1 / mbaff=0 / bframes=3 / b_pyramid=1 / b_adapt=1 / b_bias=0 / direct=1 / wpredb=1 / bime=1 / keyint=250 / keyint_min=25 / scenecut=40(pre) / rc=2pass / bitrate=4615 / ratetol=1.0 / rceq='blurCplx^(1-qComp)' / qcomp=0.60 / qpmin=10 / qpmax=51 / qpstep=4 / cplxblur=20.0 / qblur=0.5 / ip_ratio=1.40 / pb_ratio=1.30
   Audio #2
      ID : 2
      Format : DTS
      Format/Info : Digital Theater Systems
      Codec ID : A_DTS
      Duration : 1h 41mn
      Bit rate mode : Constant
      Bit rate : 1 510 Kbps
      Channel(s) : 6 channels
      Channel positions : Front: L C R, Surround: L R, LFE
      Sampling rate : 48.0 KHz
      Resolution : 16 bits
      Stream size : 1.07 GiB (25%)"
